# xmcd
#
# Track frame offsets:
#	150
#	17298
#	28958
#	40331
#	54079
#	68465
#	78013
#	91997
#	104483
#	118831
#	128929
#	141102
#	152100
#	162510
#	182607
#	194043
#	207666
#	221207
#
# Disc length: 3095 seconds
#
# Revision: 0
# Processed by: cddbd v1.5.1PL0 Copyright (c) Steve Scherf et al.
# Submitted via: dBpowerAMP V4.0
#
DISCID=010c1512
DTITLE=Jim Croce - The Very Best Of
DYEAR=1991
DGENRE=Blues
TTITLE0=Time In A Bottle
TTITLE1=Operator
TTITLE2=It Doesn' t Have To Be That Way
TTITLE3=I'll Have To Say I Love You In A Song
TTITLE4=Lover's Cross
TTITLE5=These Dreams
TTITLE6=Photographs And Memories
TTITLE7=New York's Not My Home
TTITLE8=One Less Set Of Footsteps
TTITLE9=I Got A Name
TTITLE10=Alabama Rain
TTITLE11=Dreamin' Again
TTITLE12=Thursday
TTITLE13=Which Way Are You Goin'
TTITLE14=Chain Gang Medley
TTITLE15=Workin' At The Carwash Blues
TTITLE16=Bad Bad Leroy Brown
TTITLE17=You Don' t Mess Around With Jim
EXTD=
EXTT0=
EXTT1=
EXTT2=
EXTT3=
EXTT4=
EXTT5=
EXTT6=
EXTT7=
EXTT8=
EXTT9=
EXTT10=
EXTT11=
EXTT12=
EXTT13=
EXTT14=
EXTT15=
EXTT16=
EXTT17=
PLAYORDER=
